<?xml version="1.0" encoding="UTF-8"?>
<svg version="1.1" xmlns="http://www.w3.org/2000/svg" width="265" height="239">
<path d="M0 0 C1.30385147 -0.00671722 2.60770294 -0.01343445 3.95106506 -0.02035522 C7.50097276 -0.03789185 11.05078381 -0.0427054 14.60073066 -0.0439868 C16.82711566 -0.04541625 19.05347672 -0.04970079 21.27985573 -0.05498123 C29.07135175 -0.0734423 36.86277971 -0.08165698 44.65429688 -0.08007812 C51.87749364 -0.07887852 59.10039075 -0.09995526 66.32351178 -0.13156545 C72.55745598 -0.15785884 78.79130312 -0.16843996 85.02530223 -0.16716731 C88.73413052 -0.16666139 92.44269222 -0.17213593 96.15146446 -0.19352341 C125.77735143 -0.35266699 125.77735143 -0.35266699 137.6184082 4.29052734 C138.7432235 4.71887123 138.7432235 4.71887123 139.89076233 5.15586853 C150.35377219 9.53001229 160.38264862 16.47267242 167.6184082 25.29052734 C167.6184082 25.95052734 167.6184082 26.61052734 167.6184082 27.29052734 C168.2784082 27.29052734 168.9384082 27.29052734 169.6184082 27.29052734 C178.54191646 38.35291774 183.69704573 52.45149872 183.78335571 66.56634521 C183.78899926 67.27651519 183.7946428 67.98668517 183.80045736 68.71837544 C183.81808461 71.08584384 183.82884921 73.45329193 183.83959961 75.82080078 C183.85082246 77.52285526 183.86245502 79.22490708 183.87446594 80.92695618 C183.90572483 85.54020491 183.93088293 90.1534682 183.9546628 94.76676083 C183.97510366 98.61666004 183.99863466 102.46653773 184.02219999 106.31641889 C184.07775661 115.39321649 184.12849739 124.47003204 184.17602539 133.546875 C184.22517347 142.9207529 184.28147844 152.29456796 184.34144652 161.66838241 C184.39271865 169.71345903 184.44006822 177.75855179 184.48413408 185.80367112 C184.51047135 190.61031823 184.53820569 195.41694657 184.5695076 200.22356415 C184.59869505 204.73790105 184.62297644 209.25223778 184.64340782 213.76662254 C184.65173612 215.42673138 184.66180223 217.08683251 184.67369652 218.74691963 C184.689602 221.00550043 184.69933091 223.26402377 184.70742798 225.52264404 C184.7144253 226.78876904 184.72142262 228.05489403 184.72863197 229.35938644 C184.6184082 232.29052734 184.6184082 232.29052734 183.6184082 234.29052734 C158.19189591 234.38414274 132.7654096 234.45459074 107.33875942 234.49777603 C95.53160768 234.51836442 83.72456329 234.54641365 71.91748047 234.59228516 C61.62139548 234.63226709 51.32538827 234.65798719 41.02922779 234.66688132 C35.58203914 234.67207686 30.13507293 234.68421021 24.68795586 234.71344757 C19.55059113 234.74079636 14.4135384 234.74893334 9.27610779 234.74295807 C7.40053672 234.74404966 5.52495414 234.75188667 3.64944649 234.76734924 C-17.02328503 234.92928333 -35.50387011 230.45001863 -51.3815918 216.29052734 C-52.30004883 215.47648437 -52.30004883 215.47648437 -53.23706055 214.64599609 C-65.55232858 203.03756463 -74.14747017 186.52514274 -74.76927185 169.49317932 C-74.78977229 167.46031129 -74.79452556 165.42723911 -74.78564453 163.39428711 C-74.79250778 162.27224884 -74.79937103 161.15021057 -74.80644226 159.99417114 C-74.82458874 156.32329277 -74.82089018 152.65284674 -74.81518555 148.98193359 C-74.81975296 146.40705732 -74.82506019 143.83218227 -74.83106995 141.25730896 C-74.8399771 135.87534015 -74.83784226 130.49353435 -74.82763672 125.11157227 C-74.81616011 118.92321936 -74.8302384 112.7353001 -74.85703319 106.54700428 C-74.8820024 100.55193721 -74.88434448 94.5570905 -74.87791634 88.56196404 C-74.87776377 86.03002132 -74.8837544 83.49807 -74.89620781 80.96615791 C-75.00302269 55.69361603 -75.00302269 55.69361603 -70.3815918 45.29052734 C-70.11080307 44.63480743 -69.84001434 43.97908752 -69.5610199 43.30349731 C-67.11860375 37.71843506 -64.12971958 32.10954878 -60.3815918 27.29052734 C-59.7215918 27.29052734 -59.0615918 27.29052734 -58.3815918 27.29052734 C-58.11991211 26.70787109 -57.85823242 26.12521484 -57.58862305 25.52490234 C-51.19553925 13.69045596 -35.66361249 6.22687683 -23.3815918 2.29052734 C-15.57562564 0.26317495 -8.03359253 -0.00600687 0 0 Z " fill="#2563EB" transform="translate(78.381591796875,1.70947265625)"/>
<path d="M0 0 C7.26 0 14.52 0 22 0 C22.33 14.52 22.66 29.04 23 44 C27.59683941 39.40316059 31.83399742 35.07435999 36.01953125 30.19921875 C38.41854311 27.53522728 40.94892274 25.0166207 43.5 22.5 C46.65754141 19.38504893 49.73785258 16.24557676 52.625 12.875 C53.18703125 12.25367187 53.7490625 11.63234375 54.328125 10.9921875 C56.08567471 8.99381005 56.08567471 8.99381005 57.546875 6.5078125 C59.89017398 3.29328697 61.40311899 1.81282803 65 0 C73.26141117 -1.13408575 81.70672031 -0.55037647 90 0 C86.40293929 4.23365393 82.76091353 8.41000654 79 12.5 C78.54141602 12.99918945 78.08283203 13.49837891 77.61035156 14.01269531 C74.28724678 17.62284569 70.93876506 21.20885947 67.58422852 24.78979492 C65.2280055 27.30784557 62.88014007 29.83361281 60.53271484 32.35986328 C59.20566975 33.77991568 57.86390755 35.18618786 56.51953125 36.58984375 C55.87371094 37.28207031 55.22789062 37.97429687 54.5625 38.6875 C54.02753906 39.24824219 53.49257812 39.80898437 52.94140625 40.38671875 C51.79422969 41.96653101 51.79422969 41.96653101 52.27929688 43.88623047 C53.06992031 46.20507114 54.01919138 47.5629082 55.58984375 49.43359375 C56.38745117 50.39652344 56.38745117 50.39652344 57.20117188 51.37890625 C57.77416016 52.05824219 58.34714844 52.73757812 58.9375 53.4375 C60.13550577 54.88296269 61.33210619 56.32959122 62.52734375 57.77734375 C63.12015137 58.49390137 63.71295898 59.21045898 64.32373047 59.94873047 C66.61487445 62.75242865 68.80959319 65.61674622 71 68.5 C75.42421008 74.3045055 79.9995648 79.97433813 84.62304688 85.62109375 C92 94.63636407 92 94.63636407 92 97 C67.90321534 99.24718939 67.90321534 99.24718939 62.2109375 94.59765625 C59.78208283 91.96018316 57.93071104 88.99499324 56.14648438 85.89501953 C54.17335629 82.63364384 51.71379006 79.76405178 49.3125 76.8125 C48.40332303 75.65202678 47.49700568 74.48930674 46.59375 73.32421875 C43.10802919 68.84646802 39.55597599 64.42204463 36 60 C34.95541681 60.87151615 33.91453593 61.74746967 32.875 62.625 C32.00488281 63.35589844 32.00488281 63.35589844 31.1171875 64.1015625 C30.41851562 64.72804688 29.71984375 65.35453125 29 66 C27.948125 66.7940625 26.89625 67.588125 25.8125 68.40625 C21.34455038 72.9134783 22.11152226 78.9043605 22.125 84.875 C22.104375 86.0403125 22.08375 87.205625 22.0625 88.40625 C22.01554468 91.27052424 22.00425655 94.13534407 22 97 C14.74 97 7.48 97 0 97 C0 64.99 0 32.98 0 0 Z " fill="#FDFDFE" transform="translate(137,67)"/>
<path d="M0 0 C8.18925657 5.85531845 13.15742506 13.68087319 15.40625 23.42578125 C15.40625 28.37578125 15.40625 33.32578125 15.40625 38.42578125 C-3.07375 38.75578125 -21.55375 39.08578125 -40.59375 39.42578125 C-37.48555891 45.64216343 -35.10756429 48.70973241 -28.90625 51.73828125 C-20.89303613 53.40140111 -13.98463101 52.92672489 -6.59375 49.42578125 C-4.19673739 47.8834626 -4.19673739 47.8834626 -2.59375 46.42578125 C1.07411393 47.92927502 3.09535393 50.06306917 5.65625 53.05078125 C6.36265625 53.86804688 7.0690625 54.6853125 7.796875 55.52734375 C8.59351562 56.46707031 8.59351562 56.46707031 9.40625 57.42578125 C7.52235646 62.22114662 4.09630053 64.50832525 -0.328125 66.91015625 C-13.23916181 72.32877792 -27.38984549 72.07355564 -40.59375 67.42578125 C-50.55978218 62.99643361 -57.74314032 55.63801994 -61.90234375 45.56640625 C-65.00121704 35.97215447 -64.81429161 25.25352088 -60.91796875 15.95703125 C-55.02063568 4.68425299 -45.78051883 -2.281749 -33.79296875 -6.15625 C-21.70518895 -8.45357227 -10.50598365 -6.37637261 0 0 Z " fill="#FAFCFE" transform="translate(105.59375,94.57421875)"/>
<path d="M0 0 C3.73848785 2.67626067 6.74316429 5.52575737 8.5546875 9.828125 C8.5546875 11.148125 8.5546875 12.468125 8.5546875 13.828125 C-3.3253125 13.828125 -15.2053125 13.828125 -27.4453125 13.828125 C-24.55322617 3.70582284 -24.55322617 3.70582284 -18.4453125 0.015625 C-12.63313129 -2.13425708 -5.66397944 -2.71436714 0 0 Z " fill="#2765EB" transform="translate(91.4453125,106.171875)"/>
</svg>
